<mxfile host="app.diagrams.net" agent="Mozilla/5.0 (Windows NT 10.0; Win64; x64) AppleWebKit/537.36 (KHTML, like Gecko) Chrome/135.0.0.0 Safari/537.36" version="26.2.14">
  <diagram name="Page-1" id="iKrdHCcw8tlsHVwYcJ_h">
    <mxGraphModel dx="1020" dy="644" grid="1" gridSize="10" guides="1" tooltips="1" connect="1" arrows="1" fold="1" page="1" pageScale="1" pageWidth="850" pageHeight="1100" math="0" shadow="0">
      <root>
        <mxCell id="0" />
        <mxCell id="1" parent="0" />
        <mxCell id="WVlK_k4MuwcLJRfLHbiU-16" style="edgeStyle=orthogonalEdgeStyle;rounded=0;orthogonalLoop=1;jettySize=auto;html=1;exitX=0.5;exitY=0.5;exitDx=0;exitDy=0;exitPerimeter=0;entryX=0;entryY=0.5;entryDx=0;entryDy=0;" edge="1" parent="1" source="WVlK_k4MuwcLJRfLHbiU-4" target="WVlK_k4MuwcLJRfLHbiU-10">
          <mxGeometry relative="1" as="geometry" />
        </mxCell>
        <mxCell id="WVlK_k4MuwcLJRfLHbiU-17" style="rounded=0;orthogonalLoop=1;jettySize=auto;html=1;exitX=0.5;exitY=0.5;exitDx=0;exitDy=0;exitPerimeter=0;entryX=0.5;entryY=0;entryDx=0;entryDy=0;" edge="1" parent="1" source="WVlK_k4MuwcLJRfLHbiU-4" target="WVlK_k4MuwcLJRfLHbiU-15">
          <mxGeometry relative="1" as="geometry" />
        </mxCell>
        <mxCell id="WVlK_k4MuwcLJRfLHbiU-4" value="User&lt;div&gt;&lt;br&gt;&lt;/div&gt;" style="shape=umlActor;verticalLabelPosition=bottom;verticalAlign=top;html=1;outlineConnect=0;" vertex="1" parent="1">
          <mxGeometry x="70" y="420" width="30" height="60" as="geometry" />
        </mxCell>
        <mxCell id="WVlK_k4MuwcLJRfLHbiU-18" style="rounded=0;orthogonalLoop=1;jettySize=auto;html=1;exitX=0.5;exitY=0;exitDx=0;exitDy=0;entryX=0.5;entryY=1;entryDx=0;entryDy=0;" edge="1" parent="1" source="WVlK_k4MuwcLJRfLHbiU-10" target="WVlK_k4MuwcLJRfLHbiU-11">
          <mxGeometry relative="1" as="geometry" />
        </mxCell>
        <mxCell id="WVlK_k4MuwcLJRfLHbiU-10" value="Make a Reservation" style="ellipse;whiteSpace=wrap;html=1;" vertex="1" parent="1">
          <mxGeometry x="210" y="430" width="100" height="40" as="geometry" />
        </mxCell>
        <mxCell id="WVlK_k4MuwcLJRfLHbiU-31" style="rounded=0;orthogonalLoop=1;jettySize=auto;html=1;exitX=0.5;exitY=0.5;exitDx=0;exitDy=0;exitPerimeter=0;entryX=1;entryY=0.5;entryDx=0;entryDy=0;" edge="1" parent="1" source="WVlK_k4MuwcLJRfLHbiU-5" target="WVlK_k4MuwcLJRfLHbiU-28">
          <mxGeometry relative="1" as="geometry" />
        </mxCell>
        <mxCell id="WVlK_k4MuwcLJRfLHbiU-5" value="&lt;div&gt;Admin&lt;/div&gt;&lt;div&gt;&lt;br&gt;&lt;/div&gt;" style="shape=umlActor;verticalLabelPosition=bottom;verticalAlign=top;html=1;outlineConnect=0;" vertex="1" parent="1">
          <mxGeometry x="760" y="350" width="30" height="60" as="geometry" />
        </mxCell>
        <mxCell id="WVlK_k4MuwcLJRfLHbiU-20" style="rounded=0;orthogonalLoop=1;jettySize=auto;html=1;exitX=0.5;exitY=0;exitDx=0;exitDy=0;entryX=0;entryY=0.5;entryDx=0;entryDy=0;" edge="1" parent="1" source="WVlK_k4MuwcLJRfLHbiU-11" target="WVlK_k4MuwcLJRfLHbiU-12">
          <mxGeometry relative="1" as="geometry" />
        </mxCell>
        <mxCell id="WVlK_k4MuwcLJRfLHbiU-11" value="Time Slot Validation" style="ellipse;whiteSpace=wrap;html=1;" vertex="1" parent="1">
          <mxGeometry x="240" y="320" width="100" height="40" as="geometry" />
        </mxCell>
        <mxCell id="WVlK_k4MuwcLJRfLHbiU-21" style="edgeStyle=orthogonalEdgeStyle;rounded=0;orthogonalLoop=1;jettySize=auto;html=1;exitX=0.5;exitY=1;exitDx=0;exitDy=0;" edge="1" parent="1" source="WVlK_k4MuwcLJRfLHbiU-12" target="WVlK_k4MuwcLJRfLHbiU-14">
          <mxGeometry relative="1" as="geometry" />
        </mxCell>
        <mxCell id="WVlK_k4MuwcLJRfLHbiU-12" value="Overlapping Reservation Check" style="ellipse;whiteSpace=wrap;html=1;" vertex="1" parent="1">
          <mxGeometry x="370" y="260" width="120" height="40" as="geometry" />
        </mxCell>
        <mxCell id="WVlK_k4MuwcLJRfLHbiU-13" value="Save to MongoDB" style="ellipse;whiteSpace=wrap;html=1;" vertex="1" parent="1">
          <mxGeometry x="380" y="470" width="100" height="40" as="geometry" />
        </mxCell>
        <mxCell id="WVlK_k4MuwcLJRfLHbiU-22" style="edgeStyle=orthogonalEdgeStyle;rounded=0;orthogonalLoop=1;jettySize=auto;html=1;exitX=0.5;exitY=1;exitDx=0;exitDy=0;" edge="1" parent="1" source="WVlK_k4MuwcLJRfLHbiU-14" target="WVlK_k4MuwcLJRfLHbiU-13">
          <mxGeometry relative="1" as="geometry" />
        </mxCell>
        <mxCell id="WVlK_k4MuwcLJRfLHbiU-14" value="Table Allocation" style="ellipse;whiteSpace=wrap;html=1;" vertex="1" parent="1">
          <mxGeometry x="380" y="380" width="100" height="40" as="geometry" />
        </mxCell>
        <mxCell id="WVlK_k4MuwcLJRfLHbiU-26" style="rounded=0;orthogonalLoop=1;jettySize=auto;html=1;exitX=1;exitY=0.5;exitDx=0;exitDy=0;entryX=0.5;entryY=1;entryDx=0;entryDy=0;" edge="1" parent="1" source="WVlK_k4MuwcLJRfLHbiU-15" target="WVlK_k4MuwcLJRfLHbiU-13">
          <mxGeometry relative="1" as="geometry" />
        </mxCell>
        <mxCell id="WVlK_k4MuwcLJRfLHbiU-15" value="Cancel a Reservation&amp;nbsp;" style="ellipse;whiteSpace=wrap;html=1;" vertex="1" parent="1">
          <mxGeometry x="220" y="580" width="100" height="40" as="geometry" />
        </mxCell>
        <mxCell id="WVlK_k4MuwcLJRfLHbiU-19" value="&amp;lt;&amp;lt;include&amp;gt;&amp;gt;&lt;div&gt;&lt;br&gt;&lt;/div&gt;" style="text;html=1;align=center;verticalAlign=middle;resizable=0;points=[];autosize=1;strokeColor=none;fillColor=none;rotation=0;" vertex="1" parent="1">
          <mxGeometry x="190" y="380" width="90" height="40" as="geometry" />
        </mxCell>
        <mxCell id="WVlK_k4MuwcLJRfLHbiU-23" value="&amp;lt;&amp;lt;include&amp;gt;&amp;gt;&lt;div&gt;&lt;br&gt;&lt;/div&gt;" style="text;html=1;align=center;verticalAlign=middle;resizable=0;points=[];autosize=1;strokeColor=none;fillColor=none;rotation=0;" vertex="1" parent="1">
          <mxGeometry x="250" y="280" width="90" height="40" as="geometry" />
        </mxCell>
        <mxCell id="WVlK_k4MuwcLJRfLHbiU-24" value="&amp;lt;&amp;lt;include&amp;gt;&amp;gt;&lt;div&gt;&lt;br&gt;&lt;/div&gt;" style="text;html=1;align=center;verticalAlign=middle;resizable=0;points=[];autosize=1;strokeColor=none;fillColor=none;rotation=0;" vertex="1" parent="1">
          <mxGeometry x="350" y="330" width="90" height="40" as="geometry" />
        </mxCell>
        <mxCell id="WVlK_k4MuwcLJRfLHbiU-25" value="&amp;lt;&amp;lt;include&amp;gt;&amp;gt;&lt;div&gt;&lt;br&gt;&lt;/div&gt;" style="text;html=1;align=center;verticalAlign=middle;resizable=0;points=[];autosize=1;strokeColor=none;fillColor=none;rotation=0;" vertex="1" parent="1">
          <mxGeometry x="350" y="430" width="90" height="40" as="geometry" />
        </mxCell>
        <mxCell id="WVlK_k4MuwcLJRfLHbiU-27" value="&amp;lt;&amp;lt;include&amp;gt;&amp;gt;&lt;div&gt;&lt;br&gt;&lt;/div&gt;" style="text;html=1;align=center;verticalAlign=middle;resizable=0;points=[];autosize=1;strokeColor=none;fillColor=none;rotation=0;" vertex="1" parent="1">
          <mxGeometry x="300" y="530" width="90" height="40" as="geometry" />
        </mxCell>
        <mxCell id="WVlK_k4MuwcLJRfLHbiU-32" style="edgeStyle=orthogonalEdgeStyle;rounded=0;orthogonalLoop=1;jettySize=auto;html=1;exitX=0.5;exitY=1;exitDx=0;exitDy=0;entryX=0.5;entryY=0;entryDx=0;entryDy=0;" edge="1" parent="1" source="WVlK_k4MuwcLJRfLHbiU-28" target="WVlK_k4MuwcLJRfLHbiU-30">
          <mxGeometry relative="1" as="geometry" />
        </mxCell>
        <mxCell id="WVlK_k4MuwcLJRfLHbiU-33" value="&amp;lt;&amp;lt;extend&amp;gt;&amp;gt;" style="edgeLabel;html=1;align=center;verticalAlign=middle;resizable=0;points=[];" vertex="1" connectable="0" parent="WVlK_k4MuwcLJRfLHbiU-32">
          <mxGeometry x="0.1086" y="4" relative="1" as="geometry">
            <mxPoint as="offset" />
          </mxGeometry>
        </mxCell>
        <mxCell id="WVlK_k4MuwcLJRfLHbiU-28" value="View All Reservations" style="ellipse;whiteSpace=wrap;html=1;" vertex="1" parent="1">
          <mxGeometry x="535" y="360" width="100" height="40" as="geometry" />
        </mxCell>
        <mxCell id="WVlK_k4MuwcLJRfLHbiU-30" value="Reservation Search by Name" style="ellipse;whiteSpace=wrap;html=1;" vertex="1" parent="1">
          <mxGeometry x="510" y="500" width="150" height="40" as="geometry" />
        </mxCell>
        <mxCell id="WVlK_k4MuwcLJRfLHbiU-34" value="" style="swimlane;startSize=0;" vertex="1" parent="1">
          <mxGeometry x="150" y="210" width="550" height="430" as="geometry" />
        </mxCell>
        <mxCell id="WVlK_k4MuwcLJRfLHbiU-35" value="&lt;b&gt;Restaurant Booking System&lt;/b&gt;" style="text;html=1;align=center;verticalAlign=middle;resizable=0;points=[];autosize=1;strokeColor=none;fillColor=none;" vertex="1" parent="1">
          <mxGeometry x="330" y="218" width="180" height="30" as="geometry" />
        </mxCell>
      </root>
    </mxGraphModel>
  </diagram>
</mxfile>
